<svg width="1920" height="1920" viewBox="0 0 1920 1920" fill="none" xmlns="http://www.w3.org/2000/svg">
<rect x="1685.33" y="1280" width="213.333" height="725.332" transform="rotate(90 1685.33 1280)" fill="#4285F4"/>
<rect x="601.607" y="853.332" width="213.333" height="503.466" transform="rotate(90 601.607 853.332)" fill="#FBBC05"/>
<path fill-rule="evenodd" clip-rule="evenodd" d="M1327.38 73.0756C1210.9 24.8311 1086.07 0 960.001 0L960.001 959.998L960 1920C1086.07 1920 1210.9 1895.17 1327.38 1846.92C1443.85 1798.68 1549.68 1727.96 1638.82 1638.82C1727.97 1549.68 1798.68 1443.85 1846.92 1327.37C1895.17 1210.9 1920 1086.07 1920 959.999C1920 833.93 1895.17 709.095 1846.92 592.623C1798.68 476.151 1727.97 370.321 1638.82 281.177C1549.68 192.033 1443.85 121.32 1327.38 73.0756ZM1487.97 432.026C1347.95 291.999 1158.03 213.333 960.002 213.333L960.002 959.998L960.002 1706.66C1158.03 1706.66 1347.95 1628 1487.97 1487.97C1628 1347.94 1706.67 1158.03 1706.67 959.998C1706.67 761.97 1628 572.053 1487.97 432.026Z" fill="#EA4335"/>
<path fill-rule="evenodd" clip-rule="evenodd" d="M0 959.997C-1.13668e-06 1128.51 44.3579 1294.06 128.615 1440L313.368 1333.33C247.834 1219.82 213.334 1091.06 213.334 959.997C213.334 828.93 247.834 700.172 313.368 586.664L959.998 959.997L959.999 959.997L313.368 586.664L128.615 479.998C44.3579 625.936 1.13668e-06 791.482 0 959.997Z" fill="#FBBC05"/>
<path fill-rule="evenodd" clip-rule="evenodd" d="M960.003 1493.33C854.519 1493.33 751.405 1462.05 663.699 1403.45C575.993 1344.84 507.634 1261.55 467.268 1164.1C426.901 1066.64 416.339 959.406 436.918 855.95C457.497 752.494 508.292 657.463 582.88 582.875C657.468 508.287 752.498 457.492 855.955 436.913C959.411 416.335 1066.65 426.897 1164.1 467.263C1261.55 507.63 1344.85 575.988 1403.45 663.695C1462.06 751.401 1493.33 854.515 1493.33 959.998L1280 959.998C1280 783.267 1136.73 639.998 960.003 639.998C783.272 639.998 640.004 783.267 640.004 959.998C640.004 1136.73 783.272 1280 960.003 1280V1493.33Z" fill="#4285F4"/>
<rect x="853.335" y="959.998" width="213.333" height="426.666" fill="#4285F4"/>
<circle cx="960.002" cy="959.999" r="106.666" fill="#FBBC05"/>
<circle cx="960.004" cy="1813.33" r="106.666" fill="#FBBC05"/>
<circle cx="960.002" cy="1386.66" r="106.666" fill="#4285F4"/>
<circle cx="1386.67" cy="959.999" r="106.666" fill="#EA4335"/>
<circle cx="960.002" cy="106.666" r="106.666" fill="#4285F4"/>
<circle cx="220.993" cy="1386.66" r="106.666" transform="rotate(60 220.993 1386.66)" fill="#EA4335"/>
<circle cx="220.433" cy="533.014" r="106.666" transform="rotate(30 220.433 533.014)" fill="#4285F4"/>
</svg>
