<svg width="396" height="396" viewBox="0 0 396 396" fill="none" xmlns="http://www.w3.org/2000/svg">
<path d="M99 49.5C99 31.2746 113.775 16.5 132 16.5V16.5C150.225 16.5 165 31.2746 165 49.5V82.5H99V49.5Z" fill="#4285F4"/>
<path d="M231 49.5C231 31.2746 245.775 16.5 264 16.5V16.5C282.225 16.5 297 31.2746 297 49.5V82.5H231V49.5Z" fill="#FBBC05"/>
<path d="M33 115.5C33 97.2746 47.7746 82.5 66 82.5H330C348.225 82.5 363 97.2746 363 115.5V148.5H33V115.5Z" fill="#EA4335"/>
<path d="M57.75 148.5V310.5C57.75 322.5 67.1 346.5 104.5 346.5H291.5C307.083 346.5 338.25 339.3 338.25 310.5V148.5" stroke="#2F80ED" stroke-width="49.5"/>
<rect x="115.5" y="165" width="115.5" height="33" rx="16.5" fill="#2F80ED"/>
<rect x="115.5" y="214.5" width="165" height="33" rx="16.5" fill="#FBBC05"/>
<rect x="115.5" y="264" width="132" height="33" rx="16.5" fill="#EA4335"/>
</svg>
